<?xml version="1.0" encoding="UTF-8" standalone="no"?><!DOCTYPE svg PUBLIC "-//W3C//DTD SVG 1.1//EN" "http://www.w3.org/Graphics/SVG/1.1/DTD/svg11.dtd"><svg width="100%" height="100%" viewBox="0 -15 302 302" version="1.1" xmlns="http://www.w3.org/2000/svg" xmlns:xlink="http://www.w3.org/1999/xlink" xml:space="preserve" xmlns:serif="http://www.serif.com/" style="fill-rule:evenodd;clip-rule:evenodd;stroke-linejoin:round;stroke-miterlimit:2;"><path d="M0,92.285c0,-0.781 0.781,-4.248 2.344,-10.4c1.562,-6.153 3.955,-14.258 7.177,-24.317c3.223,-10.058 6.495,-18.701 9.815,-25.927c10.937,-21.094 25.098,-31.641 42.48,-31.641l0.586,0c13.282,0 24.512,4.297 33.692,12.891c9.179,8.593 14.746,20.117 16.699,34.57c3.906,-6.055 8.789,-12.109 14.648,-18.164c5.86,-6.055 15.479,-12.451 28.858,-19.19c13.379,-6.738 27.49,-10.107 42.334,-10.107c17.578,0 32.373,4.785 44.385,14.355c12.011,9.571 18.017,25.586 18.017,48.047c0,24.414 -12.207,68.946 -36.621,133.594c-7.226,21.68 -10.84,36.719 -10.84,45.117c0,11.524 4.395,17.285 13.184,17.285c22.461,0 41.113,-25 55.957,-75c1.172,-4.882 2.246,-7.763 3.223,-8.642c0.976,-0.879 3.222,-1.319 6.738,-1.319c6.054,0 9.082,1.954 9.082,5.86c-0,1.172 -0.781,4.785 -2.344,10.84c-1.562,6.054 -4.346,13.769 -8.35,23.144c-4.003,9.375 -8.837,18.36 -14.501,26.953c-5.665,8.594 -12.989,16.016 -21.973,22.266c-8.985,6.25 -18.652,9.375 -29.004,9.375c-14.063,-0 -25.195,-4.639 -33.398,-13.916c-8.204,-9.277 -12.305,-20.654 -12.305,-34.131c-0,-8.789 3.222,-21.582 9.668,-38.379c23.242,-66.406 34.863,-110.644 34.863,-132.715c0,-26.367 -9.18,-39.55 -27.539,-39.55c-30.859,-0 -57.91,19.824 -81.152,59.472c-6.836,11.133 -12.793,27.246 -17.871,48.34c-0.782,4.492 -2.393,11.035 -4.834,19.629c-2.442,8.594 -4.053,15.137 -4.834,19.629l-24.024,95.801c-3.906,10.351 -11.133,15.625 -21.68,15.82c-5.664,-0 -9.863,-1.611 -12.597,-4.834c-2.735,-3.223 -4.102,-6.885 -4.102,-10.986c0,-1.953 0.586,-4.688 1.758,-8.203l45.117,-180.176c2.735,-11.133 4.102,-21.289 4.102,-30.469c-0,-16.016 -5.176,-24.023 -15.528,-24.023c-8.789,-0 -16.308,6.005 -22.558,18.017c-6.25,12.012 -12.305,29.834 -18.164,53.467c-1.563,6.445 -2.93,10.352 -4.102,11.719c-1.172,1.367 -3.613,2.05 -7.324,2.05c-6.055,-0.195 -9.082,-2.246 -9.082,-6.152Z" style="fill-rule:nonzero;"/></svg>